<?xml version="1.0" encoding="UTF-8" standalone="no"?>
<!-- Created with Inkscape (http://www.inkscape.org/) -->

<svg
   xmlns:dc="http://purl.org/dc/elements/1.1/"
   xmlns:cc="http://creativecommons.org/ns#"
   xmlns:rdf="http://www.w3.org/1999/02/22-rdf-syntax-ns#"
   xmlns:svg="http://www.w3.org/2000/svg"
   xmlns="http://www.w3.org/2000/svg"
   xmlns:inkscape="http://www.inkscape.org/namespaces/inkscape"
   version="1.1"
   width="765"
   height="990"
   id="svg2"
   xml:space="preserve"><metadata
     id="metadata8"><rdf:RDF><cc:Work
         rdf:about=""><dc:format>image/svg+xml</dc:format><dc:type
           rdf:resource="http://purl.org/dc/dcmitype/StillImage" /></cc:Work></rdf:RDF></metadata><defs
     id="defs6" /><g
     transform="matrix(1.25,0,0,-1.25,0,990)"
     id="g10"><text
       transform="matrix(1,0,0,-1,467.641,691.955)"
       id="text12"><tspan
         x="0"
         y="0"
         id="tspan14"
         style="font-size:11.9552002px;font-variant:normal;font-weight:normal;writing-mode:lr-tb;fill:#000000;fill-opacity:1;fill-rule:nonzero;stroke:none;font-family:CMR12;-inkscape-font-specification:CMR12">1</tspan></text>
<g
       transform="translate(178.327,598.979)"
       id="g16"><g
         id="g18"><g
           id="g20"><g
             id="g22"><path
               d="M 56.69363,0 C 56.69363,31.31142 31.31142,56.69363 0,56.69363 -31.31142,56.69363 -56.69363,31.31142 -56.69363,0 c 0,-31.31142 25.38221,-56.69363 56.69363,-56.69363 31.31142,0 56.69363,25.38221 56.69363,56.69363 z"
               inkscape:connector-curvature="0"
               id="path24"
               style="fill:#808080;fill-opacity:1;fill-rule:nonzero;stroke:none" /></g><g
             id="g26"><path
               d="m 55.45482,11.78752 c -1.37468,6.4673 -3.87206,12.64909 -7.37572,18.25614 l 7.24416,6.9629 c 0.59538,0.57231 0.70318,1.59209 0.24077,2.27776 -3.82126,5.66636 -9.71738,11.66589 -15.31838,15.58763 -0.67615,0.47342 -1.69754,0.38173 -2.28137,-0.20479 l -7.08682,-7.1196 m -3.2e-4,-4e-4 C 25.33205,51.14813 19.19499,53.7534 12.7528,55.24069 l 0.19889,10.04653 c 0.0163,0.8253 -0.62778,1.62216 -1.43861,1.7798 -6.71045,1.305 -15.12189,1.37814 -21.85396,0.19095 -0.81368,-0.14348 -1.47172,-0.92885 -1.46985,-1.7542 l 0.02324,-10.04937 m -3e-5,4.2e-4 c -6.4673,-1.37468 -12.64909,-3.87206 -18.25614,-7.37572 l -6.96293,7.24417 c -0.5723,0.59539 -1.59206,0.70317 -2.27773,0.24076 -5.66636,-3.82126 -11.66589,-9.71738 -15.58763,-15.31838 -0.47342,-0.67615 -0.38173,-1.69754 0.20479,-2.28137 l 7.1196,-7.08682 m 4e-4,-3.2e-4 C -51.14813,25.33205 -53.7534,19.19499 -55.24069,12.7528 l -10.04653,0.19889 c -0.8253,0.0163 -1.62216,-0.62778 -1.7798,-1.43861 -1.305,-6.71045 -1.37814,-15.12189 -0.19095,-21.85396 0.14348,-0.81368 0.92885,-1.47172 1.7542,-1.46985 l 10.04937,0.02324 m -4.2e-4,-3e-5 c 1.37468,-6.4673 3.87206,-12.64909 7.37572,-18.25614 l -7.24416,-6.9629 c -0.59538,-0.57231 -0.70318,-1.59209 -0.24077,-2.27776 3.82126,-5.66636 9.71738,-11.66589 15.31838,-15.58763 0.67615,-0.47342 1.69754,-0.38173 2.28137,0.20479 l 7.08682,7.1196 m 3.2e-4,4e-4 c 5.54509,-3.60097 11.68215,-6.20624 18.12434,-7.69353 l -0.19889,-10.04653 c -0.0163,-0.8253 0.62778,-1.62216 1.43861,-1.7798 6.71045,-1.305 15.12189,-1.37814 21.85396,-0.19095 0.81368,0.14348 1.47172,0.92885 1.46985,1.7542 l -0.02324,10.04937 m 3e-5,-4.2e-4 c 6.4673,1.37468 12.64909,3.87206 18.25614,7.37572 l 6.96293,-7.24417 c 0.5723,-0.59539 1.59206,-0.70317 2.27773,-0.24076 5.66636,3.82126 11.66589,9.71738 15.58763,15.31838 0.47342,0.67615 0.38173,1.69754 -0.20479,2.28137 l -7.1196,7.08682 m -4e-4,3.2e-4 c 3.60097,5.54509 6.20624,11.68215 7.69353,18.12434 l 10.04653,-0.19889 c 0.8253,-0.0163 1.62216,0.62778 1.7798,1.43861 1.305,6.71045 1.37814,15.12189 0.19095,21.85396 -0.14348,0.81368 -0.92885,1.47172 -1.7542,1.46985 L 55.4544,11.78749"
               inkscape:connector-curvature="0"
               id="path28"
               style="fill:#808080;fill-opacity:1;fill-rule:nonzero;stroke:#000000;stroke-width:0.79701;stroke-linecap:butt;stroke-linejoin:miter;stroke-miterlimit:10;stroke-opacity:1;stroke-dasharray:none" /></g><g
             id="g30"><path
               d="M 38.26837,0 C 38.26837,21.1353 21.1353,38.26837 0,38.26837 -21.1353,38.26837 -38.26837,21.1353 -38.26837,0 c 0,-21.1353 17.13307,-38.26837 38.26837,-38.26837 21.1353,0 38.26837,17.13307 38.26837,38.26837 z"
               inkscape:connector-curvature="0"
               id="path32"
               style="fill:#ffffff;fill-opacity:1;fill-rule:nonzero;stroke:#000000;stroke-width:0.79701;stroke-linecap:butt;stroke-linejoin:miter;stroke-miterlimit:10;stroke-opacity:1;stroke-dasharray:none" /></g><g
             id="g34"><path
               d="M 9.92155,0 C 9.92155,5.47957 5.47957,9.92155 0,9.92155 -5.47957,9.92155 -9.92155,5.47957 -9.92155,0 c 0,-5.47957 4.44198,-9.92155 9.92155,-9.92155 5.47957,0 9.92155,4.44198 9.92155,9.92155 z"
               inkscape:connector-curvature="0"
               id="path36"
               style="fill:#808080;fill-opacity:1;fill-rule:nonzero;stroke:#000000;stroke-width:0.79701;stroke-linecap:butt;stroke-linejoin:miter;stroke-miterlimit:10;stroke-opacity:1;stroke-dasharray:none" /></g></g></g></g></g></svg>