<?xml version="1.0" encoding="UTF-8" standalone="no"?>
<!-- Created with Inkscape (http://www.inkscape.org/) -->

<svg
   xmlns:dc="http://purl.org/dc/elements/1.1/"
   xmlns:cc="http://creativecommons.org/ns#"
   xmlns:rdf="http://www.w3.org/1999/02/22-rdf-syntax-ns#"
   xmlns:svg="http://www.w3.org/2000/svg"
   xmlns="http://www.w3.org/2000/svg"
   xmlns:xlink="http://www.w3.org/1999/xlink"
   xmlns:sodipodi="http://sodipodi.sourceforge.net/DTD/sodipodi-0.dtd"
   xmlns:inkscape="http://www.inkscape.org/namespaces/inkscape"
   id="svg3638"
   height="48"
   width="48"
   version="1.0"
   inkscape:version="0.48.4 r9939"
   sodipodi:docname="logo-ink.svg">
  <metadata
     id="metadata3062">
    <rdf:RDF>
      <cc:Work
         rdf:about="">
        <dc:format>image/svg+xml</dc:format>
        <dc:type
           rdf:resource="http://purl.org/dc/dcmitype/StillImage" />
        <dc:title></dc:title>
      </cc:Work>
    </rdf:RDF>
  </metadata>
  <sodipodi:namedview
     pagecolor="#ffffff"
     bordercolor="#666666"
     borderopacity="1"
     objecttolerance="10"
     gridtolerance="10"
     guidetolerance="10"
     inkscape:pageopacity="0"
     inkscape:pageshadow="2"
     inkscape:window-width="1303"
     inkscape:window-height="715"
     id="namedview3060"
     showgrid="false"
     inkscape:zoom="4.9166667"
     inkscape:cx="24"
     inkscape:cy="26.361755"
     inkscape:window-x="0"
     inkscape:window-y="31"
     inkscape:window-maximized="1"
     inkscape:current-layer="svg3638" />
  <defs
     id="defs3640">
    <linearGradient
       id="linearGradient5060">
      <stop
         id="stop5062"
         offset="0" />
      <stop
         id="stop5064"
         style="stop-opacity:0"
         offset="1" />
    </linearGradient>
    <linearGradient
       id="linearGradient2432"
       y2="5.4565"
       gradientUnits="userSpaceOnUse"
       x2="36.358"
       gradientTransform="matrix(.99770 0 0 1.0407 .16380 -1.1058)"
       y1="8.059"
       x1="32.892">
      <stop
         id="stop8591"
         style="stop-color:#fefefe"
         offset="0" />
      <stop
         id="stop8593"
         style="stop-color:#cbcbcb"
         offset="1" />
    </linearGradient>
    <linearGradient
       id="linearGradient2436"
       y2="9.2626"
       gradientUnits="userSpaceOnUse"
       x2="22.104"
       gradientTransform="matrix(.99461 0 0 1.4408 -.37590 -12.863)"
       y1="39.699"
       x1="22.104">
      <stop
         id="stop4340"
         style="stop-color:#8e8e8e"
         offset="0" />
      <stop
         id="stop4342"
         style="stop-color:#b5b5b5"
         offset="1" />
    </linearGradient>
    <linearGradient
       id="linearGradient2439"
       y2="46.017"
       gradientUnits="userSpaceOnUse"
       x2="24"
       gradientTransform="matrix(1 0 0 .97778 0 -.96667)"
       y1="2"
       x1="24">
      <stop
         id="stop3213"
         style="stop-color:#fff"
         offset="0" />
      <stop
         id="stop3215"
         style="stop-color:#fff;stop-opacity:0"
         offset="1" />
    </linearGradient>
    <radialGradient
       id="radialGradient2442"
       gradientUnits="userSpaceOnUse"
       cy="112.3"
       cx="102"
       gradientTransform="matrix(.36170 0 0 -.39078 .85106 47.517)"
       r="139.56">
      <stop
         id="stop41"
         style="stop-color:#b7b8b9"
         offset="0" />
      <stop
         id="stop47"
         style="stop-color:#ececec"
         offset=".18851" />
      <stop
         id="stop49"
         style="stop-color:#fafafa;stop-opacity:0"
         offset=".25718" />
      <stop
         id="stop51"
         style="stop-color:#fff;stop-opacity:0"
         offset=".30111" />
      <stop
         id="stop53"
         style="stop-color:#fafafa;stop-opacity:0"
         offset=".53130" />
      <stop
         id="stop55"
         style="stop-color:#ebecec;stop-opacity:0"
         offset=".84490" />
      <stop
         id="stop57"
         style="stop-color:#e1e2e3;stop-opacity:0"
         offset="1" />
    </radialGradient>
    <linearGradient
       id="linearGradient2445"
       y2="47.013"
       gradientUnits="userSpaceOnUse"
       x2="25.132"
       gradientTransform="matrix(1 0 0 .95617 -1.0065e-7 -1.9149)"
       y1=".98521"
       x1="25.132">
      <stop
         id="stop3602"
         style="stop-color:#f4f4f4"
         offset="0" />
      <stop
         id="stop3604"
         style="stop-color:#dbdbdb"
         offset="1" />
    </linearGradient>
    <linearGradient
       id="linearGradient2447"
       y2="2.9062"
       gradientUnits="userSpaceOnUse"
       x2="-51.786"
       gradientTransform="matrix(.80750 0 0 .89483 59.41 -2.9806)"
       y1="50.786"
       x1="-51.786">
      <stop
         id="stop3106"
         style="stop-color:#aaa"
         offset="0" />
      <stop
         id="stop3108"
         style="stop-color:#c8c8c8"
         offset="1" />
    </linearGradient>
    <radialGradient
       id="radialGradient2450"
       xlink:href="#linearGradient5060"
       gradientUnits="userSpaceOnUse"
       cy="486.65"
       cx="605.71"
       gradientTransform="matrix(.023040 0 0 0.0147 26.361 37.04)"
       r="117.14" />
    <radialGradient
       id="radialGradient2453"
       xlink:href="#linearGradient5060"
       gradientUnits="userSpaceOnUse"
       cy="486.65"
       cx="605.71"
       gradientTransform="matrix(-.023040 0 0 0.0147 21.623 37.04)"
       r="117.14" />
    <linearGradient
       id="linearGradient2456"
       y2="609.51"
       gradientUnits="userSpaceOnUse"
       x2="302.86"
       gradientTransform="matrix(.067325 0 0 0.0147 -.34114 37.04)"
       y1="366.65"
       x1="302.86">
      <stop
         id="stop5050"
         style="stop-opacity:0"
         offset="0" />
      <stop
         id="stop5056"
         offset=".5" />
      <stop
         id="stop5052"
         style="stop-opacity:0"
         offset="1" />
    </linearGradient>
    <filter
       id="filter3248"
       height="1.3287"
       width="1.2969"
       color-interpolation-filters="sRGB"
       y="-.16434"
       x="-.14846">
      <feGaussianBlur
         id="feGaussianBlur3250"
         stdDeviation="0.77391625" />
    </filter>
  </defs>
  <rect
     id="rect2879"
     style="opacity:.3;fill:url(#linearGradient2456)"
     height="3.5701"
     width="32.508"
     y="42.43"
     x="7.7378" />
  <path
     id="path2881"
     style="opacity:.3;fill:url(#radialGradient2453)"
     d="m7.7378 42.43v3.5699c-1.1865 0.0067-2.8684-0.79982-2.8684-1.7852 0-0.98533 1.324-1.7847 2.8684-1.7847z" />
  <path
     id="path2883"
     style="opacity:.3;fill:url(#radialGradient2450)"
     d="m40.246 42.43v3.5699c1.1865 0.0067 2.8684-0.79982 2.8684-1.7852 0-0.98533-1.324-1.7847-2.8684-1.7847z" />
  <path
     id="path4160"
     style="stroke-linejoin:round;stroke:url(#linearGradient2447);stroke-width:.99992;fill:url(#linearGradient2445)"
     d="m6.5 0.4972h24.061c1.4069 0.47465 8.9655 5.8822 10.939 9.6264v34.379h-35v-44.006z" />
  <path
     id="path4191"
     style="fill:url(#radialGradient2442)"
     d="m7.3617 44c-0.1993 0-0.3617-0.17546-0.3617-0.39078v-42.204c0-0.21571 0.1624-0.39078 0.3617-0.39078 7.4833 0.1082 15.775-0.16138 23.249 0.0271l10.283 8.866 0.106 33.702c0 0.216-0.162 0.391-0.362 0.391h-33.276z" />
  <path
     id="path2435"
     style="opacity:.6;stroke-linejoin:round;stroke:url(#linearGradient2439);stroke-width:.99992;fill:none"
     d="m40.5 10.259v33.263h-33v-42.045h22.866" />
  <path
     id="path3406"
     style="opacity:.7;fill:url(#linearGradient2436)"
     d="m11 22h2.3458v1h-2.346v-1zm2.6654 0h2.2134v1h-2.2134v-1zm2.5329 0h1.9485v1h-1.9485v-1zm2.2681 0h0.85587v1h-0.85587v-1zm1.1754 0h1.9154v1h-1.9154v-1zm2.2349 0h4.9616v1h-4.9616v-1zm5.2811 0h3.7696v1h-3.7696v-1zm4.0891 0h1.1539v1h-1.1539v-1zm1.474 0h2.28v1h-2.2796v-1zm-21.72 6h3.6918v1h-3.692v-1zm3.9658 0h1.7762v1h-1.7762v-1zm2.1509 0h0.83512v1h-0.83512v-1zm1.0419 0h1.6081v1h-1.6081v-1zm1.882 0h1.6081v1h-1.6081v-1zm2.1173 0h2.5827v1h-2.5827v-1zm2.8903 0h3.3893v1h-3.3893v-1zm3.8649 0h2.2803v1h-2.2803v-1zm2.554 0h0.533v1h-0.53266v-1zm-20.467-4h3.928v1h-3.928v-1zm4.236 0h4.2089v1h-4.2089v-1zm4.5169 0h1.6808v1h-1.6808v-1zm1.9887 0h3.9593v1h-3.9593v-1zm7.2859 0h1.0565v1h-1.0565v-1zm-3.0187 0h2.7108v1h-2.7108v-1zm4.3831 0h0.61953v1h-0.61953v-1zm0.927 0h1.681v1h-1.6808v-1zm-20.319 2h4.2851v1h-4.285v-1zm4.6211 0h4.5916v1h-4.5916v-1zm4.9275 0h1.8336v1h-1.8336v-1zm2.1695 0h4.3192v1h-4.3192v-1zm7.9482 0h1.1526v1h-1.1526v-1zm-3.2931 0h2.9572v1h-2.9572v-1zm4.7816 0h0.67585v1h-0.67585v-1zm1.011 0h1.834v1h-1.8336v-1zm-22.166-6h3.0616v1h-3.062v-1zm3.3868 0h5.0835v1h-5.0835v-1zm5.4088 0h2.455v1h-2.455v-1zm5.3919 0h1.9495v1h-1.9495v-1zm2.2747 0h3.129v1h-3.129v-1zm3.453 0h5.084v1h-5.0836v-1zm-8.3406 0h2.2865v1h-2.2865v-1zm-11.575-12h2.3458v1h-2.346v-1zm2.6654 0h2.2134v1h-2.2134v-1zm2.5329 0h1.9485v1h-1.9485v-1zm2.2681 0h0.85587v1h-0.85587v-1zm1.1754 0h1.9154v1h-1.9154v-1zm2.2349 0h4.9616v1h-4.9616v-1zm5.2811 0h3.7696v1h-3.7696v-1zm4.0891 0h1.1539v1h-1.1539v-1zm1.4734 0h2.2796l0.001 1h-2.2796v-1zm-21.719 2h3.6918v1h-3.692v-1zm4.0288 0h1.7762v1h-1.7762v-1zm2.1131 0h0.83512v1h-0.83512v-1zm1.1721 0h1.6081v1h-1.6081v-1zm1.9451 0h1.6081v1h-1.6081v-1zm1.9451 0h2.5827v1h-2.5827v-1zm2.9197 0h3.3894v1h-3.3894v-1zm3.7263 0h2.2803v1h-2.2803v-1zm2.617 0h0.533v1h-0.53265v-1zm-20.467 4h4.2851v1h-4.285v-1zm4.6211 0h4.5916v1h-4.5916v-1zm4.9275 0h1.8336v1h-1.8336v-1zm2.1695 0h4.3192v1h-4.3192v-1zm7.9482 0h1.1526v1h-1.1526v-1zm-3.2931 0h2.9572v1h-2.9572v-1zm4.7816 0h0.67585v1h-0.67585v-1zm1.011 0h1.834v1h-1.8336v-1zm-22.166-2h3.0616v1h-3.062v-1zm3.3868 0h5.0835v1h-5.0835v-1zm5.4088 0h2.455v1h-2.455v-1zm5.3919 0h1.9495v1h-1.9495v-1zm2.2747 0h3.129v1h-3.129v-1zm3.453 0h5.084v1h-5.0836v-1zm-8.3406 0h2.2865v1h-2.2865v-1zm-11.575 4h1.6334v1h-1.633v-1zm2.056 0h5.944v1h-5.9439v-1zm-2.056 18h3.6918v1h-3.692v-1zm3.9658 0h1.7762v1h-1.7762v-1zm2.1509 0h0.83512v1h-0.83512v-1zm1.0419 0h1.6081v1h-1.6081v-1zm1.882 0h1.6081v1h-1.6081v-1zm2.1173 0h2.5827v1h-2.5827v-1zm2.8903 0h3.3893v1h-3.3893v-1zm3.8649 0h2.2803v1h-2.2803v-1zm2.554 0h0.533v1h-0.53266v-1zm-20.467-2h3.0616v1h-3.062v-1zm3.3868 0h5.0835v1h-5.0835v-1zm5.4088 0h2.455v1h-2.455v-1zm5.3919 0h1.9495v1h-1.9495v-1zm2.2747 0h3.129v1h-3.129v-1zm3.453 0h5.084v1h-5.0836v-1zm-8.3406 0h2.2865v1h-2.2865v-1zm-11.575 4h3.8687v1h-3.869v-1zm4.1882 0h1.2182v1h-1.2182v-1zm1.5376 0h2.7813v1h-2.7813v-1zm3.1008 0h1.8978v1h-1.8978v-1zm2.2173 0h1.8978v1h-1.8978v-1zm2.2173 0h2.7473v1h-2.7473v-1zm3.0668 0h0.57256v1h-0.57256v-1zm0.89201 0h3.5629v1h-3.5629v-1zm3.882 0h1.898v1h-1.8978v-1zm-21.102 2h3.7964v1h-3.796v-1zm6.2567 0h2.4387v1h-2.4387v-1zm2.7889 0h2.2351v1h-2.2351v-1zm5.99 0h1.964v1h-1.9635v-1zm-1.1257 0h0.77554v1h-0.77554v-1zm-2.2798 0h1.9296v1h-1.9296v-1zm-7.4843 0h1.7599v1h-1.7599v-1z" />
  <path
     id="path12038"
     style="opacity:.4;fill-rule:evenodd;filter:url(#filter3248)"
     d="m28.617 0.92126c4.2825 0 2.1532 8.4832 2.1532 8.4832s10.358-1.8023 10.358 2.8187c0-2.6097-11.302-10.729-12.511-11.302z" />
  <path
     id="path4474"
     style="fill:url(#linearGradient2432);fill-rule:evenodd"
     d="m28.617 0.92126c3.1865 0 2.3358 7.6619 2.3358 7.6619s10.175-0.98105 10.175 3.64c0-1.1259 0.08591-1.9322-0.13378-2.2836-1.578-2.5243-8.395-8.1885-10.857-8.9309-0.184-0.05556-0.593-0.08754-1.52-0.08754z" />
  <g
     transform="matrix(0.17957713,0,0,-0.17957713,-14.633623,121.08835)"
     id="g10">
    <g
       transform="translate(178.327,598.979)"
       id="g16">
      <g
         id="g18">
        <g
           id="g20">
          <g
             id="g22">
            <path
               d="M 56.69363,0 C 56.69363,31.31142 31.31142,56.69363 0,56.69363 -31.31142,56.69363 -56.69363,31.31142 -56.69363,0 c 0,-31.31142 25.38221,-56.69363 56.69363,-56.69363 31.31142,0 56.69363,25.38221 56.69363,56.69363 z"
               inkscape:connector-curvature="0"
               id="path24"
               style="fill:#808080;fill-opacity:1;fill-rule:nonzero;stroke:none" />
          </g>
          <g
             id="g26">
            <path
               d="m 55.45482,11.78752 c -1.37468,6.4673 -3.87206,12.64909 -7.37572,18.25614 l 7.24416,6.9629 c 0.59538,0.57231 0.70318,1.59209 0.24077,2.27776 -3.82126,5.66636 -9.71738,11.66589 -15.31838,15.58763 -0.67615,0.47342 -1.69754,0.38173 -2.28137,-0.20479 l -7.08682,-7.1196 m -3.2e-4,-4e-4 C 25.33205,51.14813 19.19499,53.7534 12.7528,55.24069 l 0.19889,10.04653 c 0.0163,0.8253 -0.62778,1.62216 -1.43861,1.7798 -6.71045,1.305 -15.12189,1.37814 -21.85396,0.19095 -0.81368,-0.14348 -1.47172,-0.92885 -1.46985,-1.7542 l 0.02324,-10.04937 m -3e-5,4.2e-4 c -6.4673,-1.37468 -12.64909,-3.87206 -18.25614,-7.37572 l -6.96293,7.24417 c -0.5723,0.59539 -1.59206,0.70317 -2.27773,0.24076 -5.66636,-3.82126 -11.66589,-9.71738 -15.58763,-15.31838 -0.47342,-0.67615 -0.38173,-1.69754 0.20479,-2.28137 l 7.1196,-7.08682 m 4e-4,-3.2e-4 C -51.14813,25.33205 -53.7534,19.19499 -55.24069,12.7528 l -10.04653,0.19889 c -0.8253,0.0163 -1.62216,-0.62778 -1.7798,-1.43861 -1.305,-6.71045 -1.37814,-15.12189 -0.19095,-21.85396 0.14348,-0.81368 0.92885,-1.47172 1.7542,-1.46985 l 10.04937,0.02324 m -4.2e-4,-3e-5 c 1.37468,-6.4673 3.87206,-12.64909 7.37572,-18.25614 l -7.24416,-6.9629 c -0.59538,-0.57231 -0.70318,-1.59209 -0.24077,-2.27776 3.82126,-5.66636 9.71738,-11.66589 15.31838,-15.58763 0.67615,-0.47342 1.69754,-0.38173 2.28137,0.20479 l 7.08682,7.1196 m 3.2e-4,4e-4 c 5.54509,-3.60097 11.68215,-6.20624 18.12434,-7.69353 l -0.19889,-10.04653 c -0.0163,-0.8253 0.62778,-1.62216 1.43861,-1.7798 6.71045,-1.305 15.12189,-1.37814 21.85396,-0.19095 0.81368,0.14348 1.47172,0.92885 1.46985,1.7542 l -0.02324,10.04937 m 3e-5,-4.2e-4 c 6.4673,1.37468 12.64909,3.87206 18.25614,7.37572 l 6.96293,-7.24417 c 0.5723,-0.59539 1.59206,-0.70317 2.27773,-0.24076 5.66636,3.82126 11.66589,9.71738 15.58763,15.31838 0.47342,0.67615 0.38173,1.69754 -0.20479,2.28137 l -7.1196,7.08682 m -4e-4,3.2e-4 c 3.60097,5.54509 6.20624,11.68215 7.69353,18.12434 l 10.04653,-0.19889 c 0.8253,-0.0163 1.62216,0.62778 1.7798,1.43861 1.305,6.71045 1.37814,15.12189 0.19095,21.85396 -0.14348,0.81368 -0.92885,1.47172 -1.7542,1.46985 L 55.4544,11.78749"
               inkscape:connector-curvature="0"
               id="path28"
               style="fill:#808080;fill-opacity:1;fill-rule:nonzero;stroke:#000000;stroke-width:0.79701;stroke-linecap:butt;stroke-linejoin:miter;stroke-miterlimit:10;stroke-opacity:1;stroke-dasharray:none" />
          </g>
          <g
             id="g30">
            <path
               d="M 38.26837,0 C 38.26837,21.1353 21.1353,38.26837 0,38.26837 -21.1353,38.26837 -38.26837,21.1353 -38.26837,0 c 0,-21.1353 17.13307,-38.26837 38.26837,-38.26837 21.1353,0 38.26837,17.13307 38.26837,38.26837 z"
               inkscape:connector-curvature="0"
               id="path32"
               style="fill:#ffffff;fill-opacity:1;fill-rule:nonzero;stroke:#000000;stroke-width:0.79701;stroke-linecap:butt;stroke-linejoin:miter;stroke-miterlimit:10;stroke-opacity:1;stroke-dasharray:none" />
          </g>
          <g
             id="g34">
            <path
               d="M 9.92155,0 C 9.92155,5.47957 5.47957,9.92155 0,9.92155 -5.47957,9.92155 -9.92155,5.47957 -9.92155,0 c 0,-5.47957 4.44198,-9.92155 9.92155,-9.92155 5.47957,0 9.92155,4.44198 9.92155,9.92155 z"
               inkscape:connector-curvature="0"
               id="path36"
               style="fill:#808080;fill-opacity:1;fill-rule:nonzero;stroke:#000000;stroke-width:0.79701;stroke-linecap:butt;stroke-linejoin:miter;stroke-miterlimit:10;stroke-opacity:1;stroke-dasharray:none" />
          </g>
        </g>
      </g>
    </g>
  </g>
  <text
     xml:space="preserve"
     style="font-size:11px;font-style:normal;font-weight:normal;line-height:125%;letter-spacing:0px;word-spacing:0px;fill:#000000;fill-opacity:1;stroke:none;font-family:Sans"
     x="5.8983049"
     y="43.728813"
     id="text3231"
     sodipodi:linespacing="125%"><tspan
       sodipodi:role="line"
       id="tspan3233"
       x="5.8983049"
       y="43.728813">LaTeX</tspan></text>
</svg>
